<svg xmlns="http://www.w3.org/2000/svg" viewBox="0 0 23.12 36.79"><defs><style>.cls-1{stroke:#fff;stroke-width:1.6px;}.cls-1,.cls-2,.cls-3{stroke-miterlimit:10;}.cls-2,.cls-3{fill:#fff;stroke:#000;}.cls-2{stroke-width:0.8px;}.cls-3{stroke-width:0.25px;}</style></defs><g id="Capa_2" data-name="Capa 2"><g id="Capa_1-2" data-name="Capa 1"><path class="cls-1" d="M7.82,24.55l.09,1.31L6.59,26l.1,1.33-1.35.09.09,1.33-1.32.09.09,1.33-1.32.09L.85.94,2.16.85l.09,1.32,1.33-.1L3.67,3.4,5,3.31l.09,1.33,1.34-.1.09,1.35L7.86,5.8,8,7.12,9.27,7l.1,1.34,1.34-.09.09,1.31,1.32-.09.09,1.33,1.33-.1.09,1.35L15,12l.09,1.32,1.32-.09.1,1.33,1.34-.09.09,1.33,1.32-.09.1,1.33,1.32-.1.09,1.34,1.34-.09.18,2.68-8,.55.18,2.64L15.8,24,16,26.63l1.32-.09.19,2.66,1.33-.09L19,31.79l1.32-.09.27,4-4,.28-.09-1.3-1.33.09L15,32.06l-1.32.1-.19-2.67-1.33.1L12,26.93,10.67,27l-.18-2.65Z"/><path class="cls-2" d="M14.6,16.05l-.1-1.34-1.32.09-.09-1.32-1.34.09-.09-1.35-1.33.09L10.23,11l-1.32.09L8.82,9.79,7.5,9.88l.18,2.64L9,12.43l.09,1.35,1.34-.1L10.53,15l1.32-.09.09,1.33,1.33-.09.09,1.34,1.35-.09.09,1.29,1.29-.09L15.91,16Z"/><polygon class="cls-3" points="15.91 15.96 16.09 18.6 14.8 18.69 14.71 17.4 13.36 17.49 13.27 16.15 11.95 16.24 11.85 14.91 10.53 15 10.44 13.68 9.1 13.78 9.01 12.43 7.68 12.52 7.5 9.88 8.82 9.79 8.91 11.08 10.23 10.99 10.33 12.31 11.66 12.22 11.75 13.57 13.09 13.48 13.18 14.8 14.5 14.71 14.6 16.05 15.91 15.96"/></g></g></svg>